<svg width="23" height="25" viewBox="0 0 23 25" fill="none" xmlns="http://www.w3.org/2000/svg">
<path fill-rule="evenodd" clip-rule="evenodd" d="M18.5312 25C19.1823 25 19.7357 24.7721 20.1914 24.3164C20.6471 23.8607 20.875 23.3073 20.875 22.6562V4.6875H22.1445C22.2096 4.6875 22.2747 4.65495 22.3398 4.58984C22.4049 4.52474 22.4375 4.45964 22.4375 4.39453V4.29688C22.4375 3.97135 22.3236 3.69466 22.0957 3.4668C21.8678 3.23893 21.5911 3.125 21.2656 3.125H16.9688L15.3086 0.927734C14.8529 0.309245 14.2344 0 13.4531 0H9.54688C8.76562 0 8.14714 0.309245 7.69141 0.927734L6.03125 3.125H1.73438C1.40885 3.125 1.13216 3.23893 0.904297 3.4668C0.676432 3.69466 0.5625 3.97135 0.5625 4.29688V4.39453C0.5625 4.45964 0.595052 4.52474 0.660156 4.58984C0.72526 4.65495 0.790365 4.6875 0.855469 4.6875H2.125V22.6562C2.125 23.3073 2.35286 23.8607 2.80859 24.3164C3.26432 24.7721 3.81771 25 4.46875 25H18.5312ZM15.0156 3.12501H7.98438L8.91211 1.85548C9.07487 1.66016 9.28646 1.56251 9.54688 1.56251H13.4531C13.7135 1.56251 13.9251 1.66016 14.0879 1.85548L15.0156 3.12501ZM18.5312 23.4375H4.46875C4.24089 23.4375 4.05371 23.3643 3.90723 23.2178C3.76074 23.0713 3.6875 22.8841 3.6875 22.6562V4.68749H19.3125V22.6562C19.3125 22.8841 19.2393 23.0713 19.0928 23.2178C18.9463 23.3643 18.7591 23.4375 18.5312 23.4375ZM11.6953 21.0938C11.8581 21.0938 11.9964 21.0368 12.1104 20.9229C12.2243 20.8089 12.2812 20.6706 12.2812 20.5078V7.61719C12.2812 7.45443 12.2243 7.31609 12.1104 7.20215C11.9964 7.08822 11.8581 7.03126 11.6953 7.03126H11.3047C11.1419 7.03126 11.0036 7.08822 10.8896 7.20215C10.7757 7.31609 10.7188 7.45443 10.7188 7.61719V20.5078C10.7188 20.6706 10.7757 20.8089 10.8896 20.9229C11.0036 21.0368 11.1419 21.0938 11.3047 21.0938H11.6953ZM7.78906 21.0938C7.95182 21.0938 8.09017 21.0368 8.2041 20.9229C8.31803 20.8089 8.375 20.6706 8.375 20.5078V7.61719C8.375 7.45443 8.31803 7.31609 8.2041 7.20215C8.09017 7.08822 7.95182 7.03126 7.78906 7.03126H7.39844C7.23568 7.03126 7.09733 7.08822 6.9834 7.20215C6.86947 7.31609 6.8125 7.45443 6.8125 7.61719V20.5078C6.8125 20.6706 6.86947 20.8089 6.9834 20.9229C7.09733 21.0368 7.23568 21.0938 7.39844 21.0938H7.78906ZM15.6016 21.0938C15.7643 21.0938 15.9027 21.0368 16.0166 20.9229C16.1305 20.8089 16.1875 20.6706 16.1875 20.5078V7.61719C16.1875 7.45443 16.1305 7.31609 16.0166 7.20215C15.9027 7.08822 15.7643 7.03126 15.6016 7.03126H15.2109C15.0482 7.03126 14.9098 7.08822 14.7959 7.20215C14.682 7.31609 14.625 7.45443 14.625 7.61719V20.5078C14.625 20.6706 14.682 20.8089 14.7959 20.9229C14.9098 21.0368 15.0482 21.0938 15.2109 21.0938H15.6016Z" fill="white"/>
</svg>
