<svg width="25" height="25" viewBox="0 0 25 25" fill="none" xmlns="http://www.w3.org/2000/svg">
<path fill-rule="evenodd" clip-rule="evenodd" d="M1.30148 24.9926L6.87684 24.3731L24.0847 7.16528C25.305 5.94486 25.305 3.96618 24.0846 2.74587L22.254 0.915293C21.0337 -0.305074 19.0551 -0.305121 17.8346 0.915293L0.626805 18.1231L0.00734773 23.6984C-0.0755741 24.4448 0.555185 25.0755 1.30148 24.9926ZM20.5412 8.49893L16.501 4.45869L18.9395 2.02016C19.5501 1.40957 20.5385 1.40947 21.1492 2.02016L22.9797 3.85073C23.5904 4.46137 23.5904 5.4497 22.9797 6.06043L20.5412 8.49893ZM8.49605 20.5441V18.8476H6.1523V16.5039H4.45577L15.3961 5.56352L19.4364 9.60376L8.49605 20.5441ZM3.27889 23.2008L1.79912 21.721L2.11922 18.8404L3.08858 17.871H4.78512V20.2148H7.12886V21.9113L6.1595 22.8807L3.27889 23.2008Z" fill="white"/>
</svg>
